<svg width="1200" height="520" viewBox="0 0 1200 520" fill="none" xmlns="http://www.w3.org/2000/svg">
  <defs>
    <linearGradient id="bg" x1="0" y1="0" x2="1200" y2="520" gradientUnits="userSpaceOnUse">
      <stop stop-color="#071522"/>
      <stop offset="1" stop-color="#111827"/>
    </linearGradient>
    <linearGradient id="good" x1="0" y1="0" x2="1" y2="0">
      <stop stop-color="#34D399"/>
      <stop offset="1" stop-color="#10B981"/>
    </linearGradient>
    <linearGradient id="warn" x1="0" y1="0" x2="1" y2="0">
      <stop stop-color="#FBBF24"/>
      <stop offset="1" stop-color="#F59E0B"/>
    </linearGradient>
  </defs>

  <rect width="1200" height="520" fill="url(#bg)"/>

  <g>
    <rect x="86" y="96" width="1028" height="260" rx="22" fill="#0B172A" stroke="#1F2A3D"/>
    <text x="128" y="145" fill="#F8FAFC" font-size="26" font-weight="700" font-family="Segoe UI, sans-serif">Purchase safety decision</text>

    <rect x="128" y="188" width="250" height="100" rx="18" fill="#111F2D" stroke="#27415B"/>
    <text x="150" y="228" fill="#93C5FD" font-size="14" font-family="Segoe UI, sans-serif">Current liquid balance</text>
    <text x="150" y="260" fill="#F8FAFC" font-size="30" font-weight="700" font-family="Segoe UI, sans-serif">₹ 1,80,000</text>

    <rect x="430" y="188" width="250" height="100" rx="18" fill="#111F2D" stroke="#27415B"/>
    <text x="452" y="228" fill="#93C5FD" font-size="14" font-family="Segoe UI, sans-serif">Recommended reserve</text>
    <text x="452" y="260" fill="#F8FAFC" font-size="30" font-weight="700" font-family="Segoe UI, sans-serif">₹ 1,38,000</text>

    <rect x="732" y="188" width="250" height="100" rx="18" fill="#111F2D" stroke="#27415B"/>
    <text x="754" y="228" fill="#93C5FD" font-size="14" font-family="Segoe UI, sans-serif">Purchase amount</text>
    <text x="754" y="260" fill="#F8FAFC" font-size="30" font-weight="700" font-family="Segoe UI, sans-serif">₹ 35,000</text>

    <path d="M380 238H430" stroke="#38BDF8" stroke-width="5" stroke-linecap="round"/>
    <path d="M680 238H732" stroke="#38BDF8" stroke-width="5" stroke-linecap="round"/>
    <path d="M982 238H1088" stroke="#38BDF8" stroke-width="5" stroke-linecap="round"/>

    <rect x="924" y="208" width="144" height="62" rx="14" fill="url(#good)"/>
    <text x="958" y="248" fill="#052E16" font-size="22" font-weight="700" font-family="Segoe UI, sans-serif">SAFE</text>
  </g>

  <g>
    <text x="128" y="424" fill="#E2E8F0" font-size="22" font-family="Segoe UI, sans-serif">Final engine verdict</text>
    <text x="128" y="462" fill="#A7F3D0" font-size="20" font-family="Segoe UI, sans-serif">Post-purchase reserve remains above the minimum emergency threshold.</text>
  </g>
</svg>
